<svg width="953" height="953" viewBox="0 0 953 953" fill="none" xmlns="http://www.w3.org/2000/svg">
<g filter="url(#filter0_d_103_4)">
<circle cx="476.5" cy="472.5" r="472.5" fill="url(#paint0_linear_103_4)"/>
<circle cx="476.5" cy="472.5" r="462.5" stroke="#5F0099" stroke-width="20"/>
<circle cx="476.5" cy="472.5" r="462.5" stroke="black" stroke-width="20"/>
</g>
<mask id="path-3-outside-1_103_4" maskUnits="userSpaceOnUse" x="186.605" y="195.364" width="609" height="554" fill="black">
<rect fill="white" x="186.605" y="195.364" width="609" height="554"/>
<path fill-rule="evenodd" clip-rule="evenodd" d="M494.104 215.364V579H649.466C676.692 579 699.596 574.62 718.181 565.861C736.765 557.101 750.792 545.205 760.262 530.172C769.85 515.02 774.644 497.797 774.644 478.503C774.644 460.629 770.856 445.241 763.28 432.338C755.704 419.317 745.82 409.197 733.628 401.976C721.554 394.755 708.593 390.849 694.743 390.257V386.706C707.409 383.865 718.654 379.071 728.479 372.324C738.422 365.458 746.235 356.699 751.917 346.045C757.598 335.274 760.439 322.786 760.439 308.581C760.439 290.352 755.941 274.253 746.945 260.286C737.949 246.199 724.514 235.191 706.64 227.26C688.765 219.329 666.453 215.364 639.701 215.364H494.104ZM633.664 516.145H570.986V419.554H635.439C647.75 419.554 658.344 421.744 667.222 426.124C676.218 430.503 683.143 436.54 687.996 444.234C692.849 451.929 695.276 460.806 695.276 470.868C695.276 484.599 690.364 495.608 680.539 503.894C670.714 512.061 655.089 516.145 633.664 516.145ZM627.982 367.53H570.986V277.509H629.402C646.448 277.509 659.587 281.533 668.82 289.582C678.171 297.632 682.847 308.226 682.847 321.365C682.847 330.953 680.42 339.18 675.567 346.045C670.832 352.911 664.322 358.238 656.036 362.026C647.868 365.695 638.517 367.53 627.982 367.53ZM206.605 365.364V729H361.967C389.193 729 412.097 724.62 430.682 715.861C449.266 707.101 463.293 695.205 472.763 680.172C482.351 665.02 487.145 647.797 487.145 628.503C487.145 610.629 483.357 595.241 475.781 582.338C468.205 569.317 458.321 559.196 446.129 551.976C434.055 544.755 421.094 540.849 407.244 540.257V536.706C419.91 533.865 431.155 529.071 440.98 522.324C450.923 515.458 458.736 506.699 464.417 496.045C470.099 485.274 472.94 472.785 472.94 458.581C472.94 440.352 468.442 424.253 459.446 410.285C450.45 396.199 437.015 385.191 419.14 377.26C401.266 369.329 378.953 365.364 352.202 365.364H206.605ZM346.165 666.145H283.487V569.554H347.94C360.251 569.554 370.845 571.744 379.723 576.124C388.719 580.503 395.644 586.54 400.497 594.234C405.35 601.928 407.777 610.806 407.777 620.868C407.777 634.599 402.864 645.607 393.04 653.893C383.215 662.061 367.59 666.145 346.165 666.145ZM340.483 517.53H283.487V427.508H341.903C358.949 427.508 372.088 431.533 381.321 439.582C390.672 447.632 395.348 458.226 395.348 471.365C395.348 480.953 392.921 489.18 388.068 496.045C383.333 502.911 376.823 508.238 368.537 512.026C360.369 515.695 351.018 517.53 340.483 517.53Z"/>
</mask>
<path fill-rule="evenodd" clip-rule="evenodd" d="M494.104 215.364V579H649.466C676.692 579 699.596 574.62 718.181 565.861C736.765 557.101 750.792 545.205 760.262 530.172C769.85 515.02 774.644 497.797 774.644 478.503C774.644 460.629 770.856 445.241 763.28 432.338C755.704 419.317 745.82 409.197 733.628 401.976C721.554 394.755 708.593 390.849 694.743 390.257V386.706C707.409 383.865 718.654 379.071 728.479 372.324C738.422 365.458 746.235 356.699 751.917 346.045C757.598 335.274 760.439 322.786 760.439 308.581C760.439 290.352 755.941 274.253 746.945 260.286C737.949 246.199 724.514 235.191 706.64 227.26C688.765 219.329 666.453 215.364 639.701 215.364H494.104ZM633.664 516.145H570.986V419.554H635.439C647.75 419.554 658.344 421.744 667.222 426.124C676.218 430.503 683.143 436.54 687.996 444.234C692.849 451.929 695.276 460.806 695.276 470.868C695.276 484.599 690.364 495.608 680.539 503.894C670.714 512.061 655.089 516.145 633.664 516.145ZM627.982 367.53H570.986V277.509H629.402C646.448 277.509 659.587 281.533 668.82 289.582C678.171 297.632 682.847 308.226 682.847 321.365C682.847 330.953 680.42 339.18 675.567 346.045C670.832 352.911 664.322 358.238 656.036 362.026C647.868 365.695 638.517 367.53 627.982 367.53ZM206.605 365.364V729H361.967C389.193 729 412.097 724.62 430.682 715.861C449.266 707.101 463.293 695.205 472.763 680.172C482.351 665.02 487.145 647.797 487.145 628.503C487.145 610.629 483.357 595.241 475.781 582.338C468.205 569.317 458.321 559.196 446.129 551.976C434.055 544.755 421.094 540.849 407.244 540.257V536.706C419.91 533.865 431.155 529.071 440.98 522.324C450.923 515.458 458.736 506.699 464.417 496.045C470.099 485.274 472.94 472.785 472.94 458.581C472.94 440.352 468.442 424.253 459.446 410.285C450.45 396.199 437.015 385.191 419.14 377.26C401.266 369.329 378.953 365.364 352.202 365.364H206.605ZM346.165 666.145H283.487V569.554H347.94C360.251 569.554 370.845 571.744 379.723 576.124C388.719 580.503 395.644 586.54 400.497 594.234C405.35 601.928 407.777 610.806 407.777 620.868C407.777 634.599 402.864 645.607 393.04 653.893C383.215 662.061 367.59 666.145 346.165 666.145ZM340.483 517.53H283.487V427.508H341.903C358.949 427.508 372.088 431.533 381.321 439.582C390.672 447.632 395.348 458.226 395.348 471.365C395.348 480.953 392.921 489.18 388.068 496.045C383.333 502.911 376.823 508.238 368.537 512.026C360.369 515.695 351.018 517.53 340.483 517.53Z" fill="url(#paint1_linear_103_4)"/>
<path d="M494.104 579H474.104V599H494.104V579ZM494.104 215.364V195.364H474.104V215.364H494.104ZM718.181 565.861L709.654 547.77L709.654 547.77L718.181 565.861ZM760.262 530.172L743.361 519.477L743.35 519.495L743.339 519.512L760.262 530.172ZM763.28 432.338L745.993 442.396L746.013 442.43L746.033 442.465L763.28 432.338ZM733.628 401.976L723.363 419.141L723.4 419.163L723.437 419.184L733.628 401.976ZM694.743 390.257H674.743V409.421L693.889 410.239L694.743 390.257ZM694.743 386.706L690.366 367.191L674.743 370.695V386.706H694.743ZM728.479 372.324L739.801 388.811L739.822 388.796L739.843 388.782L728.479 372.324ZM751.917 346.045L769.564 355.457L769.585 355.417L769.606 355.376L751.917 346.045ZM746.945 260.286L730.089 271.051L730.11 271.083L730.131 271.115L746.945 260.286ZM706.64 227.26L698.528 245.541L698.528 245.541L706.64 227.26ZM570.986 516.145H550.986V536.145H570.986V516.145ZM570.986 419.554V399.554H550.986V419.554H570.986ZM667.222 426.124L658.373 444.06L658.42 444.083L658.467 444.106L667.222 426.124ZM687.996 444.234L671.08 454.904L671.08 454.904L687.996 444.234ZM680.539 503.894L693.324 519.273L693.379 519.228L693.433 519.182L680.539 503.894ZM570.986 367.53H550.986V387.53H570.986V367.53ZM570.986 277.509V257.509H550.986V277.509H570.986ZM668.82 289.582L655.677 304.658L655.725 304.699L655.773 304.74L668.82 289.582ZM675.567 346.045L659.236 334.501L659.169 334.595L659.103 334.691L675.567 346.045ZM656.036 362.026L664.232 380.269L664.292 380.242L664.351 380.215L656.036 362.026ZM206.605 729H186.605V749H206.605V729ZM206.605 365.364V345.364H186.605V365.364H206.605ZM430.682 715.861L439.209 733.952L439.209 733.952L430.682 715.861ZM472.763 680.172L455.862 669.477L455.851 669.495L455.84 669.512L472.763 680.172ZM475.781 582.338L458.494 592.396L458.514 592.43L458.534 592.465L475.781 582.338ZM446.129 551.976L435.864 569.141L435.901 569.163L435.938 569.184L446.129 551.976ZM407.244 540.257H387.244V559.421L406.39 560.239L407.244 540.257ZM407.244 536.706L402.867 517.191L387.244 520.695V536.706H407.244ZM440.98 522.324L452.302 538.811L452.323 538.796L452.344 538.782L440.98 522.324ZM464.417 496.045L482.065 505.457L482.086 505.417L482.107 505.376L464.417 496.045ZM459.446 410.285L442.59 421.05L442.611 421.083L442.632 421.115L459.446 410.285ZM419.14 377.26L411.029 395.541L411.029 395.541L419.14 377.26ZM283.487 666.145H263.487V686.145H283.487V666.145ZM283.487 569.554V549.554H263.487V569.554H283.487ZM379.723 576.124L370.874 594.06L370.921 594.083L370.968 594.106L379.723 576.124ZM400.497 594.234L417.413 583.564L417.413 583.564L400.497 594.234ZM393.04 653.893L405.825 669.273L405.88 669.228L405.934 669.182L393.04 653.893ZM283.487 517.53H263.487V537.53H283.487V517.53ZM283.487 427.508V407.508H263.487V427.508H283.487ZM381.321 439.582L368.178 454.658L368.226 454.699L368.273 454.74L381.321 439.582ZM388.068 496.045L371.736 484.501L371.67 484.595L371.604 484.691L388.068 496.045ZM368.537 512.026L376.733 530.269L376.793 530.242L376.852 530.215L368.537 512.026ZM514.104 579V215.364H474.104V579H514.104ZM649.466 559H494.104V599H649.466V559ZM709.654 547.77C694.456 554.933 674.658 559 649.466 559V599C678.725 599 704.737 594.308 726.708 583.952L709.654 547.77ZM743.339 519.512C736.204 530.839 725.339 540.376 709.654 547.77L726.708 583.952C748.191 573.826 765.38 559.571 777.184 540.832L743.339 519.512ZM754.644 478.503C754.644 494.311 750.77 507.77 743.361 519.477L777.162 540.867C788.93 522.271 794.644 501.284 794.644 478.503H754.644ZM746.033 442.465C751.484 451.748 754.644 463.494 754.644 478.503H794.644C794.644 457.764 790.228 438.733 780.527 422.212L746.033 442.465ZM723.437 419.184C732.507 424.556 740.022 432.133 745.993 442.396L780.567 422.28C771.387 406.502 759.134 393.837 743.82 384.767L723.437 419.184ZM693.889 410.239C704.365 410.687 714.099 413.6 723.363 419.141L743.893 384.811C729.01 375.91 712.82 371.011 695.597 370.275L693.889 410.239ZM674.743 386.706V390.257H714.743V386.706H674.743ZM717.157 355.837C709.613 361.018 700.768 364.858 690.366 367.191L699.12 406.221C714.05 402.872 727.695 397.124 739.801 388.811L717.157 355.837ZM734.27 336.634C730.091 344.468 724.434 350.813 717.115 355.866L739.843 388.782C752.411 380.104 762.378 368.929 769.564 355.457L734.27 336.634ZM740.439 308.581C740.439 320.076 738.157 329.263 734.227 336.715L769.606 355.376C777.04 341.284 780.439 325.495 780.439 308.581H740.439ZM730.131 271.115C736.847 281.543 740.439 293.805 740.439 308.581H780.439C780.439 286.899 775.036 266.964 763.759 249.456L730.131 271.115ZM698.528 245.541C713.436 252.156 723.546 260.805 730.089 271.051L763.801 249.521C752.351 231.593 735.591 218.226 714.751 208.979L698.528 245.541ZM639.701 235.364C664.625 235.364 683.964 239.079 698.528 245.541L714.751 208.979C693.567 199.579 668.28 195.364 639.701 195.364V235.364ZM494.104 235.364H639.701V195.364H494.104V235.364ZM570.986 536.145H633.664V496.145H570.986V536.145ZM550.986 419.554V516.145H590.986V419.554H550.986ZM635.439 399.554H570.986V439.554H635.439V399.554ZM676.07 408.187C663.853 402.16 650.088 399.554 635.439 399.554V439.554C645.412 439.554 652.836 441.328 658.373 444.06L676.07 408.187ZM704.912 433.564C697.876 422.41 687.975 413.983 675.976 408.141L658.467 444.106C664.461 447.024 668.409 450.67 671.08 454.904L704.912 433.564ZM715.276 470.868C715.276 457.444 711.99 444.786 704.912 433.564L671.08 454.904C673.708 459.071 675.276 464.169 675.276 470.868H715.276ZM693.433 519.182C708.103 506.81 715.276 490.034 715.276 470.868H675.276C675.276 479.164 672.624 484.405 667.645 488.605L693.433 519.182ZM633.664 536.145C656.853 536.145 678.174 531.868 693.324 519.273L667.753 488.514C663.254 492.254 653.324 496.145 633.664 496.145V536.145ZM570.986 387.53H627.982V347.53H570.986V387.53ZM550.986 277.509V367.53H590.986V277.509H550.986ZM629.402 257.509H570.986V297.509H629.402V257.509ZM681.963 274.507C667.881 262.23 649.393 257.509 629.402 257.509V297.509C643.502 297.509 651.293 300.836 655.677 304.658L681.963 274.507ZM702.847 321.365C702.847 302.831 695.948 286.545 681.867 274.424L655.773 304.74C660.394 308.719 662.847 313.62 662.847 321.365H702.847ZM691.899 357.59C699.464 346.888 702.847 334.486 702.847 321.365H662.847C662.847 327.42 661.376 331.472 659.236 334.501L691.899 357.59ZM664.351 380.215C675.607 375.069 685.06 367.509 692.031 357.4L659.103 334.691C656.605 338.313 653.036 341.406 647.721 343.836L664.351 380.215ZM627.982 387.53C640.849 387.53 653.072 385.283 664.232 380.269L647.84 343.782C642.664 346.107 636.185 347.53 627.982 347.53V387.53ZM226.605 729V365.364H186.605V729H226.605ZM361.967 709H206.605V749H361.967V709ZM422.155 697.77C406.957 704.933 387.159 709 361.967 709V749C391.226 749 417.238 744.307 439.209 733.952L422.155 697.77ZM455.84 669.512C448.705 680.839 437.84 690.376 422.155 697.77L439.209 733.952C460.692 723.826 477.881 709.571 489.685 690.832L455.84 669.512ZM467.145 628.503C467.145 644.311 463.271 657.77 455.862 669.477L489.663 690.867C501.431 672.271 507.145 651.284 507.145 628.503H467.145ZM458.534 592.465C463.985 601.748 467.145 613.494 467.145 628.503H507.145C507.145 607.764 502.729 588.733 493.028 572.211L458.534 592.465ZM435.938 569.184C445.007 574.556 452.523 582.132 458.494 592.396L493.068 572.28C483.888 556.502 471.635 543.837 456.321 534.767L435.938 569.184ZM406.39 560.239C416.866 560.687 426.6 563.6 435.864 569.141L456.394 534.811C441.511 525.91 425.321 521.011 408.098 520.275L406.39 560.239ZM387.244 536.706V540.257H427.244V536.706H387.244ZM429.658 505.837C422.114 511.018 413.269 514.858 402.867 517.191L411.621 556.221C426.551 552.872 440.196 547.124 452.302 538.811L429.658 505.837ZM446.77 486.634C442.592 494.468 436.935 500.813 429.616 505.866L452.344 538.782C464.912 530.104 474.879 518.929 482.065 505.457L446.77 486.634ZM452.94 458.581C452.94 470.076 450.658 479.263 446.728 486.714L482.107 505.376C489.541 491.284 492.94 475.495 492.94 458.581H452.94ZM442.632 421.115C449.348 431.543 452.94 443.805 452.94 458.581H492.94C492.94 436.899 487.537 416.964 476.26 399.456L442.632 421.115ZM411.029 395.541C425.937 402.156 436.047 410.805 442.59 421.05L476.302 399.521C464.852 381.593 448.092 368.226 427.252 358.979L411.029 395.541ZM352.202 385.364C377.126 385.364 396.465 389.079 411.029 395.541L427.252 358.979C406.067 349.579 380.781 345.364 352.202 345.364V385.364ZM206.605 385.364H352.202V345.364H206.605V385.364ZM283.487 686.145H346.165V646.145H283.487V686.145ZM263.487 569.554V666.145H303.487V569.554H263.487ZM347.94 549.554H283.487V589.554H347.94V549.554ZM388.571 558.187C376.354 552.16 362.589 549.554 347.94 549.554V589.554C357.913 589.554 365.337 591.328 370.874 594.06L388.571 558.187ZM417.413 583.564C410.377 572.41 400.476 563.983 388.477 558.141L370.968 594.106C376.962 597.024 380.91 600.67 383.581 604.904L417.413 583.564ZM427.777 620.868C427.777 607.444 424.491 594.786 417.413 583.564L383.581 604.904C386.209 609.071 387.777 614.169 387.777 620.868H427.777ZM405.934 669.182C420.604 656.81 427.777 640.034 427.777 620.868H387.777C387.777 629.164 385.125 634.405 380.146 638.605L405.934 669.182ZM346.165 686.145C369.354 686.145 390.675 681.868 405.825 669.273L380.254 638.514C375.755 642.254 365.825 646.145 346.165 646.145V686.145ZM283.487 537.53H340.483V497.53H283.487V537.53ZM263.487 427.508V517.53H303.487V427.508H263.487ZM341.903 407.508H283.487V447.508H341.903V407.508ZM394.464 424.507C380.382 412.23 361.894 407.508 341.903 407.508V447.508C356.003 447.508 363.794 450.836 368.178 454.658L394.464 424.507ZM415.348 471.365C415.348 452.831 408.449 436.545 394.368 424.424L368.273 454.74C372.895 458.719 375.348 463.62 375.348 471.365H415.348ZM404.4 507.59C411.965 496.888 415.348 484.486 415.348 471.365H375.348C375.348 477.42 373.877 481.472 371.736 484.501L404.4 507.59ZM376.852 530.215C388.108 525.069 397.561 517.509 404.532 507.4L371.604 484.691C369.106 488.313 365.537 491.406 360.222 493.836L376.852 530.215ZM340.483 537.53C353.35 537.53 365.573 535.283 376.733 530.269L360.34 493.782C355.165 496.107 348.686 497.53 340.483 497.53V537.53Z" fill="black" mask="url(#path-3-outside-1_103_4)"/>
<defs>
<filter id="filter0_d_103_4" x="0" y="0" width="953" height="953" filterUnits="userSpaceOnUse" color-interpolation-filters="sRGB">
<feFlood flood-opacity="0" result="BackgroundImageFix"/>
<feColorMatrix in="SourceAlpha" type="matrix" values="0 0 0 0 0 0 0 0 0 0 0 0 0 0 0 0 0 0 127 0" result="hardAlpha"/>
<feOffset dy="4"/>
<feGaussianBlur stdDeviation="2"/>
<feComposite in2="hardAlpha" operator="out"/>
<feColorMatrix type="matrix" values="0 0 0 0 0 0 0 0 0 0 0 0 0 0 0 0 0 0 0.25 0"/>
<feBlend mode="normal" in2="BackgroundImageFix" result="effect1_dropShadow_103_4"/>
<feBlend mode="normal" in="SourceGraphic" in2="effect1_dropShadow_103_4" result="shape"/>
</filter>
<linearGradient id="paint0_linear_103_4" x1="751" y1="91" x2="170" y2="834" gradientUnits="userSpaceOnUse">
<stop stop-color="#AE8625"/>
<stop offset="0.351" stop-color="#F7EF8A"/>
<stop offset="0.661" stop-color="#D2AC47"/>
<stop offset="0.951" stop-color="#EDC967"/>
</linearGradient>
<linearGradient id="paint1_linear_103_4" x1="684.701" y1="206.756" x2="276.979" y2="631.412" gradientUnits="userSpaceOnUse">
<stop stop-color="#000AFF"/>
<stop offset="0.426" stop-color="#5F0099"/>
<stop offset="0.661" stop-color="#5F0099"/>
<stop offset="1" stop-color="#FF0C0C"/>
</linearGradient>
</defs>
</svg>